<svg xmlns="http://www.w3.org/2000/svg" version="1.1" xmlns:xlink="http://www.w3.org/1999/xlink" xmlns:svgjs="http://svgjs.com/svgjs" width="1000" height="1000"><rect width="1000" height="1000" rx="200" ry="200" fill="#e6e6e6"></rect><g transform="matrix(0.9765625,0,0,0.9765625,-0.002421140670776367,-0.08592653274536133)"><svg xmlns="http://www.w3.org/2000/svg" version="1.1" xmlns:xlink="http://www.w3.org/1999/xlink" xmlns:svgjs="http://svgjs.com/svgjs" width="1024" height="1024"><svg xmlns="http://www.w3.org/2000/svg" xmlns:xlink="http://www.w3.org/1999/xlink" width="1024" height="1024">
	<path fill="#6A3A58" transform="scale(2 2)" d="M368.435 251.811C384.159 268.271 406.012 310.775 405.321 334.771C404.735 355.145 381.574 364.33 365.507 349.065C367.39 344.589 369.968 336.957 370.424 332.21C371.958 307.912 373.25 298.637 364.953 273.351C366.432 271.964 368.027 272.19 368.435 269.972C366.476 268.263 363.531 264.045 361.36 263.216C364.214 259.786 365.991 255.526 368.435 251.811Z"></path>
	<path fill="#D0C5C5" transform="scale(2 2)" d="M368.435 269.972C376.374 282.084 396.408 321.5 393.233 336.436C390.325 350.116 371.081 347.039 370.424 332.21C371.958 307.912 373.25 298.637 364.953 273.351C366.432 271.964 368.027 272.19 368.435 269.972Z"></path>
	<path fill="#6A3A58" transform="scale(2 2)" d="M142.346 249.683C143.101 250.522 148.443 259.285 148.908 260.437C149.741 261.605 150.534 262.725 151.153 264.025C141.914 289.749 137.204 304.864 142.346 333.885C142.485 334.154 146.177 348.236 146.255 349.065C131.149 365.022 107.506 355.535 106.592 335.226C105.587 312.885 128.249 265.217 142.346 249.683Z"></path>
	<path fill="#D0C5C5" transform="scale(2 2)" d="M142.346 333.885C138.598 348.342 120.952 349.641 118.79 336.128C116.122 319.46 139.374 273.561 148.908 260.437C149.741 261.605 150.534 262.725 151.153 264.025C141.914 289.749 137.204 304.864 142.346 333.885Z"></path>
	<path fill="#6A3A58" transform="scale(2 2)" d="M165.749 385.031L165.974 385.164C171.035 388.189 172.267 390.37 177.801 386.88L177.786 415.93C177.777 435.793 178.136 438.475 198.756 438.37C221.875 438.253 224.756 439.34 224.757 414.887L224.745 393.696C245.979 395.398 265.622 397.105 286.982 393.696L286.973 413.909C286.983 437.894 288.31 438.11 311.296 438.325C332.316 438.522 334.33 438.615 334.322 414.116L334.3 388.082C338.337 393.156 342.886 388.228 346.226 385.031C347.055 390.462 346.236 396.659 346.238 402.178C346.252 431.123 349.548 450.501 313.899 450.264C289.167 450.101 275.152 448.641 275.142 419.784L275.152 406.781C262.258 407.235 249.682 407.532 236.749 406.781C236.387 419.732 239.366 433.196 229.126 443.398C219.813 452.678 202.8 450.376 190.027 450.308C178.751 450.247 168.695 442.426 166.215 431.384C164.489 423.695 165.612 394.089 165.749 385.031Z"></path>
	<path fill="#331F31" transform="scale(2 2)" d="M142.346 249.683C125.02 216.01 121.469 182.318 133.187 145.716C154.675 78.6012 228.73 42.4599 295.253 63.892C363.476 85.8717 401.326 159.41 379.284 227.646C376.967 234.819 372.829 245.518 368.435 251.811C365.991 255.526 364.214 259.786 361.36 263.216C363.531 264.045 366.476 268.263 368.435 269.972C368.027 272.19 366.432 271.964 364.953 273.351C373.25 298.637 371.958 307.912 370.424 332.21C369.968 336.957 367.39 344.589 365.507 349.065C362.1 365.596 353.189 372.464 346.226 385.031C342.886 388.228 338.337 393.156 334.3 388.082L334.322 414.116C334.33 438.615 332.316 438.522 311.296 438.325C288.31 438.11 286.983 437.894 286.973 413.909L286.982 393.696C265.622 397.105 245.979 395.398 224.745 393.696L224.757 414.887C224.756 439.34 221.875 438.253 198.756 438.37C178.136 438.475 177.777 435.793 177.786 415.93L177.801 386.88C172.267 390.37 171.035 388.189 165.974 385.164L165.749 385.031C165.684 382.465 162.498 379.472 161.051 377.559C154.547 368.956 150.142 359.068 146.255 349.065C146.177 348.236 142.485 334.154 142.346 333.885C137.204 304.864 141.914 289.749 151.153 264.025C150.534 262.725 149.741 261.605 148.908 260.437C148.443 259.285 143.101 250.522 142.346 249.683ZM250.075 77.4965C220.052 79.6858 192.825 92.3687 173.038 115.269C133.954 160.504 138.252 231.274 183.81 270.436C205.481 289.064 232.924 298.515 261.438 297.602C322.652 293.944 369.189 242.382 365.316 181.105C361.457 120.049 311.038 75.2395 250.075 77.4965ZM165.749 280.685C157.262 307.496 157.639 335.646 172.644 360.382C180.332 373.055 177.859 371.251 177.801 386.88L177.786 415.93C177.777 435.793 178.136 438.475 198.756 438.37C221.875 438.253 224.756 439.34 224.757 414.887L224.745 393.696C245.979 395.398 265.622 397.105 286.982 393.696L286.973 413.909C286.983 437.894 288.31 438.11 311.296 438.325C332.316 438.522 334.33 438.615 334.322 414.116L334.3 388.082C334.357 373.478 331.548 372.237 338.889 360.309C355.886 332.69 353.123 309.755 346.226 280.685C343.689 282.527 341.486 284.721 339.149 286.8C299.082 322.43 236.983 327.673 191.071 300.056C181.96 294.575 173.721 287.664 165.749 280.685ZM361.36 263.216C361.18 264.596 364.409 271.155 364.953 273.351C366.432 271.964 368.027 272.19 368.435 269.972C366.476 268.263 363.531 264.045 361.36 263.216Z"></path>
	<path fill="#331F31" transform="scale(2 2)" d="M224.745 209.253C228.507 209.146 232.926 211.525 236.618 212.374C249.461 215.326 263.043 215.167 275.852 212.12C279.21 211.321 284.107 208.507 287.5 209.34C294.524 211.063 293.677 219.133 287.785 222.008C270.762 229.1 242.455 229.125 225.353 222.364C218.205 219.539 217.414 212.016 224.745 209.253Z"></path>
	<path fill="#331F31" transform="scale(2 2)" d="M298.686 138.105C320.769 134.758 329.967 180 301.215 184.148C279.35 187.794 269.044 139.76 298.686 138.105ZM298.686 151.022C289.4 153.221 293.178 171.876 301.215 171.47C309.137 167.804 307.842 152.115 298.686 151.022Z"></path>
	<path fill="#331F31" transform="scale(2 2)" d="M211.185 138.105C235.996 134.885 241.707 177.104 214.562 184.148C188.428 187.457 184.998 141.514 211.185 138.105ZM213.469 151.022C202.303 154.255 204.769 172.001 212.058 171.47C220.986 169.731 222.455 150.151 213.469 151.022Z"></path>
</svg></svg></g></svg>